# xmcd
#
# Track frame offsets:
#	150
#	16266
#	34135
#	65571
#	85782
#	112630
#	128453
#	144010
#	158250
#	184141
#	205182
#
# Disc length: 2990 seconds
#
# Revision: 0
# Processed by: cddbd v1.5.2PL0 Copyright (c) Steve Scherf et al.
# Submitted via: EZCDAudioConverter 1.0.3.1
#
DISCID=780bac0b
DTITLE=Alabama Mike - Day to day
DYEAR=2009
DGENRE=Blues Rock
TTITLE0=Day to Day
TTITLE1=Death Letter Blues
TTITLE2=Religion
TTITLE3=Naggin
TTITLE4=Lay My Money Down
TTITLE5=Strange Angels
TTITLE6=Too Many Cooks
TTITLE7=Knockin on Your Door
TTITLE8=Somethin on My Mind
TTITLE9=I've Been Rocked
TTITLE10=Sara Brown
EXTD=
EXTT0=
EXTT1=
EXTT2=
EXTT3=
EXTT4=
EXTT5=
EXTT6=
EXTT7=
EXTT8=
EXTT9=
EXTT10=
PLAYORDER=
